<svg width="17" height="19" viewBox="0 0 17 19" fill="none" xmlns="http://www.w3.org/2000/svg">
<path d="M8.36328 0C9.7134 2.3497e-05 11.0082 0.536557 11.9629 1.49121C12.9175 2.44591 13.4541 3.74072 13.4541 5.09082V7.36328H14.0908C15.5466 7.36347 16.7274 8.54418 16.7275 10V15.7266C16.7275 17.1825 15.5467 18.3631 14.0908 18.3633H2.63672C1.1807 18.3633 0 17.1826 0 15.7266V10C9.59019e-05 8.54406 1.18075 7.36328 2.63672 7.36328H3.27246V5.09082C3.27248 3.74068 3.80899 2.44592 4.76367 1.49121C5.71838 0.536501 7.01312 2.34879e-05 8.36328 0ZM2.63672 9.36328C2.28532 9.36328 2.0001 9.64863 2 10V15.7266C2 16.078 2.28526 16.3633 2.63672 16.3633H14.0908C14.4421 16.3631 14.7275 16.0779 14.7275 15.7266V10C14.7274 9.64875 14.4421 9.36347 14.0908 9.36328H2.63672ZM8.36328 2C7.54355 2.00002 6.75737 2.32564 6.17773 2.90527C5.59813 3.48491 5.27248 4.27111 5.27246 5.09082V7.36328H11.4541V5.09082C11.4541 4.27115 11.1284 3.4849 10.5488 2.90527C9.9692 2.32569 9.18297 2.00002 8.36328 2Z" fill="#4A5566"/>
</svg>
