<svg width="18" height="15" viewBox="0 0 18 15" fill="none" xmlns="http://www.w3.org/2000/svg">
<path d="M15.0488 0C16.4518 0.000276718 17.5638 1.14011 17.6045 2.51465C17.6062 2.53715 17.6082 2.55953 17.6084 2.58203C17.6084 2.58546 17.6094 2.58934 17.6094 2.59277V12.1475C17.609 13.5562 16.4779 14.739 15.0488 14.7393H2.56055C1.13141 14.739 0.000354575 13.5562 0 12.1475V2.56543C0.000361624 2.55141 0.00197719 2.53745 0.00292969 2.52344C0.0391096 1.14492 1.15457 0.000223528 2.56055 0H15.0488ZM9.38574 8.97949C9.03819 9.22752 8.57118 9.22754 8.22363 8.97949L2 4.53418V12.1475C2.00035 12.4895 2.27338 12.739 2.56055 12.7393H15.0488C15.336 12.739 15.609 12.4894 15.6094 12.1475V4.53418L9.38574 8.97949ZM2.56055 2C2.40846 2.00013 2.26102 2.07073 2.15527 2.1875L8.80469 6.93652L15.4531 2.18848C15.3474 2.07155 15.201 2.00016 15.0488 2H2.56055Z" fill="#4A5566"/>
</svg>
