<svg width="62" height="56" viewBox="0 0 62 56" fill="none" xmlns="http://www.w3.org/2000/svg">
<path d="M19.333 0C22.9281 5.65879e-05 26.3768 1.42859 28.9189 3.9707C29.6778 4.7296 30.3368 5.56958 30.8887 6.46973C31.4408 5.56947 32.1004 4.7297 32.8594 3.9707C35.4015 1.42854 38.8492 0 42.4443 0H55.7773C59.091 0 61.7773 2.68629 61.7773 6V41.333C61.7773 44.6467 59.0911 47.333 55.7773 47.333H39.5557C37.7876 47.333 36.0911 48.0359 34.8408 49.2861C33.5908 50.5363 32.8887 52.232 32.8887 54C32.8887 54.0689 32.8847 54.137 32.8779 54.2041C32.8643 54.3387 32.8378 54.4694 32.7988 54.5947C32.7599 54.7199 32.709 54.8398 32.6475 54.9531C32.5858 55.0667 32.5133 55.1735 32.4316 55.2725C32.1464 55.6179 31.7474 55.8657 31.292 55.959C31.1617 55.9857 31.0269 56 30.8887 56C30.8194 56 30.751 55.9961 30.6836 55.9893C29.6754 55.8865 28.8887 55.0353 28.8887 54C28.8887 52.232 28.1866 50.5363 26.9365 49.2861C25.6864 48.036 23.9905 47.3332 22.2227 47.333H6C2.68629 47.333 0 44.6467 0 41.333V6C0 2.68629 2.68629 0 6 0H19.333ZM6 4C4.89543 4 4 4.89543 4 6V41.333C4 42.4376 4.89543 43.333 6 43.333H22.2227C24.6578 43.3332 27.006 44.1679 28.8887 45.6758V13.5557C28.8887 11.0214 27.8818 8.59083 26.0898 6.79883C24.2979 5.00693 21.8672 4.00006 19.333 4H6ZM42.4443 4C39.91 4 37.4795 5.00681 35.6875 6.79883C33.8955 8.59084 32.8887 11.0214 32.8887 13.5557V45.6758C34.7716 44.1677 37.1202 43.333 39.5557 43.333H55.7773C56.8819 43.333 57.7773 42.4376 57.7773 41.333V6C57.7773 4.89543 56.8819 4 55.7773 4H42.4443Z" fill="white"/>
</svg>
