<svg width="56" height="56" viewBox="0 0 56 56" fill="none" xmlns="http://www.w3.org/2000/svg">
<path d="M52.7777 26.3889C52.7873 30.0552 51.9307 33.6719 50.2777 36.9444C48.3178 40.866 45.3048 44.1644 41.5762 46.4702C37.8476 48.7761 33.5507 49.9983 29.1667 50C25.5004 50.0095 21.8837 49.1529 18.6111 47.5L2.77783 52.7777L8.0556 36.9444C6.40263 33.6719 5.54604 30.0552 5.5556 26.3889C5.5573 22.0049 6.77952 17.708 9.08537 13.9794C11.3912 10.2507 14.6896 7.23775 18.6111 5.27785C21.8837 3.62488 25.5004 2.76829 29.1667 2.77785H30.5556C36.3454 3.09727 41.814 5.54107 45.9142 9.64133C50.0145 13.7416 52.4583 19.2102 52.7777 25V26.3889Z" stroke="white" stroke-width="5.55553" stroke-linecap="round" stroke-linejoin="round"/>
</svg>
