<svg width="58" height="54" viewBox="0 0 58 54" fill="none" xmlns="http://www.w3.org/2000/svg">
<path d="M45.6182 32C48.8959 32 51.9493 33.5049 54.1367 36.0273C56.3139 38.538 57.4863 41.8728 57.4863 45.2852V50.6182C57.4863 52.0641 56.3141 53.2363 54.8682 53.2363C53.4223 53.2363 52.25 52.0641 52.25 50.6182V45.2852C52.25 43.0396 51.4728 40.9481 50.1807 39.458C48.8986 37.9796 47.2469 37.2363 45.6182 37.2363C44.1723 37.2363 43 36.0641 43 34.6182C43 33.1723 44.1723 32 45.6182 32ZM30.3682 31C33.6459 31 36.6993 32.5049 38.8867 35.0273C41.0639 37.538 42.2363 40.8728 42.2363 44.2852V49.6182C42.2363 51.0641 41.0641 52.2363 39.6182 52.2363C38.1723 52.2363 37 51.0641 37 49.6182V44.2852C37 42.0396 36.2229 39.9481 34.9307 38.458C33.6486 36.9796 31.9969 36.2363 30.3682 36.2363H11.8682C10.2394 36.2363 8.5877 36.9796 7.30566 38.458C6.01348 39.9481 5.23633 42.0396 5.23633 44.2852V49.6182C5.23633 51.0641 4.06408 52.2363 2.61816 52.2363C1.17225 52.2363 0 51.0641 0 49.6182V44.2852C0 40.8728 1.17245 37.538 3.34961 35.0273C5.537 32.5049 8.59039 31 11.8682 31H30.3682ZM20.6738 0C27.9032 0.000236568 33.7637 5.86141 33.7637 13.0908C33.7634 20.32 27.903 26.1804 20.6738 26.1807C13.4446 26.1805 7.58324 20.3201 7.58301 13.0908C7.58301 5.86138 13.4444 0.000197934 20.6738 0ZM37.0908 0C44.3202 0.000236587 50.1807 5.86141 50.1807 13.0908C50.1804 20.32 44.32 26.1804 37.0908 26.1807C35.6449 26.1807 34.4727 25.0084 34.4727 23.5625C34.4727 22.1166 35.6449 20.9443 37.0908 20.9443C41.4282 20.9441 44.9451 17.4282 44.9453 13.0908C44.9453 8.75323 41.4284 5.23656 37.0908 5.23633C35.6449 5.23633 34.4727 4.06408 34.4727 2.61816C34.4727 1.17225 35.6449 0 37.0908 0ZM20.6738 5.23633C16.3363 5.23653 12.8193 8.75321 12.8193 13.0908C12.8196 17.4282 16.3364 20.9441 20.6738 20.9443C25.0112 20.9441 28.5271 17.4282 28.5273 13.0908C28.5273 8.75323 25.0114 5.23656 20.6738 5.23633Z" fill="white"/>
</svg>
