<svg width="17" height="18" viewBox="0 0 17 18" fill="none" xmlns="http://www.w3.org/2000/svg">
<path d="M11.4551 0C11.9067 0.000259294 12.2734 0.36665 12.2734 0.818359V1.63574H13.9092C15.2646 1.63578 16.364 2.73545 16.3643 4.09082V15.5449C16.3643 16.9005 15.2648 18 13.9092 18H2.45508C1.09947 18 0 16.9005 0 15.5449V4.09082C0.000250838 2.73543 1.09962 1.63574 2.45508 1.63574H4.09082V0.818359C4.09082 0.36649 4.45731 0 4.90918 0C5.36104 8.50916e-06 5.72754 0.366495 5.72754 0.818359V1.63574H10.6367V0.818359C10.6367 0.36649 11.0032 0 11.4551 0ZM1.63672 8.18164V15.5449C1.63672 15.9968 2.00321 16.3633 2.45508 16.3633H13.9092C14.361 16.3632 14.7275 15.9968 14.7275 15.5449V8.18164H1.63672ZM2.45508 3.27246C2.00336 3.27246 1.63697 3.63916 1.63672 4.09082V6.54492H14.7275V4.09082C14.7273 3.63919 14.3609 3.2725 13.9092 3.27246H12.2734V4.09082C12.2734 4.54248 11.9067 4.90892 11.4551 4.90918C11.0032 4.90918 10.6368 4.54264 10.6367 4.09082V3.27246H5.72754V4.09082C5.72749 4.54264 5.36101 4.90917 4.90918 4.90918C4.45734 4.90918 4.09087 4.54264 4.09082 4.09082V3.27246H2.45508Z" fill="#6D7684"/>
</svg>
