<svg width="13" height="11" viewBox="0 0 13 11" fill="none" xmlns="http://www.w3.org/2000/svg">
<path d="M7.65527 0.00390625C7.80885 0.0235187 7.94761 0.110825 8.03223 0.243164L8.88574 1.5791H10.6152C11.0297 1.57913 11.423 1.75148 11.709 2.0498C11.9941 2.34744 12.1504 2.74663 12.1504 3.1582V8.94824C12.1504 9.35983 11.9941 9.75899 11.709 10.0566C11.423 10.355 11.0297 10.5273 10.6152 10.5273H1.53516C1.12071 10.5272 0.727343 10.355 0.441406 10.0566C0.156422 9.759 0 9.35976 0 8.94824V3.1582C1.92202e-05 2.74667 0.156383 2.34744 0.441406 2.0498C0.727344 1.75144 1.12071 1.5792 1.53516 1.5791H3.26465L4.11816 0.243164C4.21477 0.0919619 4.38212 0.000207686 4.56152 0H7.58887L7.65527 0.00390625ZM3.99609 2.38867C3.89937 2.53996 3.73231 2.63184 3.55273 2.63184H1.53516C1.41471 2.63193 1.29444 2.68201 1.20215 2.77832C1.10913 2.87546 1.05275 3.01164 1.05273 3.1582V8.94824C1.05273 9.09479 1.10916 9.23098 1.20215 9.32812C1.29444 9.42443 1.41471 9.47451 1.53516 9.47461H10.6152C10.7357 9.47458 10.8559 9.42443 10.9482 9.32812C11.0413 9.23097 11.0977 9.09486 11.0977 8.94824V3.1582C11.0976 3.0116 11.0413 2.87546 10.9482 2.77832C10.8559 2.68206 10.7357 2.63187 10.6152 2.63184H8.59766C8.41813 2.63175 8.24998 2.53997 8.15332 2.38867L7.2998 1.05273H4.85059L3.99609 2.38867ZM6.0752 3.1582C7.50116 3.1582 8.61914 4.35785 8.61914 5.79004C8.61911 7.22221 7.50115 8.42188 6.0752 8.42188C4.64938 8.42172 3.53128 7.22212 3.53125 5.79004C3.53126 4.35794 4.64936 3.15836 6.0752 3.1582ZM6.0752 4.21094C5.27254 4.21109 4.58399 4.89669 4.58398 5.79004C4.58401 6.68337 5.27255 7.36899 6.0752 7.36914C6.87796 7.36914 7.56638 6.68347 7.56641 5.79004C7.5664 4.89659 6.87797 4.21094 6.0752 4.21094Z" fill="white"/>
</svg>
