<svg width="12" height="12" viewBox="0 0 12 12" fill="none" xmlns="http://www.w3.org/2000/svg">
<path d="M0.250972 0.25105C0.585706 -0.0836835 1.12913 -0.0836835 1.46386 0.25105L6 4.78718L10.5371 0.25105C10.8718 -0.0833691 11.4143 -0.0833469 11.749 0.25105C12.0835 0.585809 12.0837 1.12931 11.749 1.46394L7.21191 6.00007L11.749 10.5372C12.0835 10.8719 12.0837 11.4145 11.749 11.7491C11.4144 12.0836 10.8718 12.0835 10.5371 11.7491L6 7.21199L1.46386 11.7491C1.12922 12.0836 0.585678 12.0835 0.250972 11.7491C-0.083373 11.4145 -0.0832906 10.8719 0.250972 10.5372L4.7871 6.00007L0.250972 1.46394C-0.0837097 1.12926 -0.083605 0.585797 0.250972 0.25105Z" fill="#4A5566"/>
</svg>
