<svg width="18" height="16" viewBox="0 0 18 16" fill="none" xmlns="http://www.w3.org/2000/svg">
<path d="M3.19796 15.1938H14.3975M8.44736 1.00712C8.48189 0.944404 8.53262 0.892108 8.59425 0.855685C8.65588 0.819263 8.72616 0.800049 8.79775 0.800049C8.86934 0.800049 8.93962 0.819263 9.00125 0.855685C9.06288 0.892108 9.11361 0.944404 9.14814 1.00712L11.5096 5.49015C11.566 5.59396 11.6446 5.68401 11.7398 5.75384C11.835 5.82366 11.9446 5.87154 12.0605 5.89402C12.1764 5.91651 12.2959 5.91304 12.4104 5.88388C12.5248 5.85471 12.6314 5.80057 12.7224 5.72534L16.1439 2.79425C16.2096 2.74083 16.2905 2.70963 16.375 2.70513C16.4596 2.70064 16.5434 2.72309 16.6143 2.76925C16.6853 2.81541 16.7398 2.88289 16.77 2.962C16.8002 3.0411 16.8045 3.12774 16.7823 3.20944L14.5151 11.4059C14.4689 11.5737 14.3692 11.7217 14.2312 11.8277C14.0931 11.9336 13.9244 11.9917 13.7504 11.9931H3.84593C3.67181 11.9919 3.50283 11.9339 3.36466 11.8279C3.22649 11.722 3.12667 11.5738 3.08036 11.4059L0.814044 3.21023C0.791845 3.12854 0.796142 3.0419 0.826316 2.9628C0.856491 2.88369 0.910986 2.81621 0.981958 2.77005C1.05293 2.72389 1.13672 2.70144 1.22126 2.70593C1.3058 2.71043 1.38674 2.74163 1.45242 2.79505L4.87309 5.72614C4.96413 5.80137 5.07069 5.85551 5.18513 5.88468C5.29957 5.91384 5.41905 5.91731 5.53499 5.89482C5.65093 5.87234 5.76045 5.82446 5.85569 5.75464C5.95093 5.68481 6.02953 5.59476 6.08585 5.49095L8.44736 1.00712Z" stroke="#F2BB20" stroke-width="1.59994" stroke-linecap="round" stroke-linejoin="round"/>
</svg>
