<svg width="16" height="16" viewBox="0 0 16 16" fill="none" xmlns="http://www.w3.org/2000/svg">
<path d="M15.2002 9.60059C15.6418 9.6008 16 9.95869 16 10.4004V13.6006C15.9998 14.2369 15.7468 14.8479 15.2969 15.2979C14.8468 15.7476 14.2359 16 13.5996 16H2.39941C1.76334 15.9998 1.15303 15.7475 0.703125 15.2979C0.253176 14.8479 0.000155278 14.2369 0 13.6006V10.4004C0 9.95863 0.358067 9.60069 0.799805 9.60059C1.24163 9.60059 1.59961 9.95856 1.59961 10.4004V13.6006C1.59976 13.8125 1.68415 14.0161 1.83398 14.166C1.98387 14.3158 2.1875 14.4002 2.39941 14.4004H13.5996C13.8116 14.4004 14.0151 14.3157 14.165 14.166C14.3149 14.0161 14.3993 13.8125 14.3994 13.6006V10.4004C14.3994 9.95863 14.7585 9.60069 15.2002 9.60059ZM8 0C8.44176 0 8.7997 0.358067 8.7998 0.799805V8.46973L11.4346 5.83496C11.747 5.52254 12.253 5.52254 12.5654 5.83496C12.8777 6.1474 12.8778 6.65347 12.5654 6.96582L8.56543 10.9658C8.50139 11.0298 8.42852 11.0794 8.35156 11.1172C8.24528 11.1695 8.12644 11.2002 8 11.2002C7.87325 11.2002 7.75394 11.1698 7.64746 11.1172C7.5708 11.0795 7.49839 11.0296 7.43457 10.9658L3.43457 6.96582C3.12222 6.65347 3.12235 6.1474 3.43457 5.83496C3.74699 5.52254 4.25301 5.52254 4.56543 5.83496L7.2002 8.46973V0.799805C7.2003 0.358067 7.55824 0 8 0Z" fill="#4A5566"/>
</svg>
