<svg width="18" height="17" viewBox="0 0 18 17" fill="none" xmlns="http://www.w3.org/2000/svg">
<path d="M10.6748 2.59473C12.2064 2.59471 13.4197 2.59449 14.3691 2.7168C15.3464 2.84274 16.138 3.10813 16.7617 3.70606C17.3856 4.30398 17.6626 5.06229 17.7939 5.99903C17.9216 6.90923 17.9209 8.07269 17.9209 9.54102V9.63086C17.9209 11.0989 17.9216 12.2617 17.7939 13.1719C17.6626 14.1085 17.3855 14.8669 16.7617 15.4648C16.138 16.0628 15.3464 16.3281 14.3691 16.4541C13.4197 16.5764 12.2065 16.5762 10.6748 16.5762H7.24707C5.71517 16.5762 4.50135 16.5764 3.55176 16.4541C2.57457 16.3281 1.78392 16.0627 1.16016 15.4648C0.536362 14.8669 0.25932 14.1086 0.12793 13.1719C0.000306555 12.2617 -8.43762e-06 11.0989 5.22161e-07 9.63086V9.54102C-8.43841e-06 8.07265 0.000261812 6.90924 0.12793 5.99903C0.25932 5.06229 0.536362 4.30398 1.16016 3.70606C1.78391 3.10831 2.57464 2.84273 3.55176 2.7168C4.50134 2.59442 5.71517 2.59471 7.24707 2.59473H10.6748ZM7.29395 3.79297C5.7048 3.79297 4.5753 3.79397 3.71875 3.9043C2.88012 4.01237 2.39671 4.21558 2.04395 4.55371C1.69127 4.89178 1.47996 5.35468 1.36719 6.15821C1.27676 6.80294 1.25647 7.60916 1.25195 8.66309L1.67383 8.30957C2.68106 7.46488 4.19911 7.5129 5.14551 8.41993L8.7207 11.8477C9.07857 12.1907 9.64243 12.2377 10.0566 11.959L10.3057 11.791C11.4979 10.988 13.1112 11.0813 14.1943 12.0156L16.3516 13.877C16.4397 13.6404 16.5063 13.3578 16.5547 13.0127C16.6699 12.1917 16.6709 11.1093 16.6709 9.58594C16.6709 8.06236 16.6699 6.97924 16.5547 6.15821C16.442 5.35482 16.2304 4.89177 15.8779 4.55371C15.5252 4.21559 15.0417 4.01238 14.2031 3.9043C13.3465 3.79392 12.2173 3.79297 10.6279 3.79297H7.29395ZM13.5449 5.59082C14.2354 5.59082 14.7959 6.12716 14.7959 6.78907C14.7959 7.4509 14.2354 7.98731 13.5449 7.98731C12.8546 7.98714 12.2949 7.45079 12.2949 6.78907C12.2949 6.12727 12.8546 5.591 13.5449 5.59082ZM10.5449 3.24681e-06C11.7674 -1.46677e-05 12.7482 -0.000288569 13.5186 0.0986361C14.3164 0.201086 14.9812 0.419949 15.5088 0.923831C15.793 1.19525 15.9914 1.5046 16.1299 1.85157C15.7222 1.68976 15.2685 1.5893 14.7676 1.52442C13.796 1.39857 12.5546 1.39843 10.9873 1.39844H7.47949C5.91201 1.39843 4.66992 1.39855 3.69824 1.52442C3.12483 1.5987 2.61386 1.71971 2.16211 1.92578C2.30169 1.5486 2.50726 1.21446 2.81152 0.923831C3.3391 0.419974 4.004 0.201083 4.80176 0.0986361C5.57209 -0.000280618 6.55285 -1.46672e-05 7.77539 3.24681e-06H10.5449Z" fill="#4A5566"/>
</svg>
