<svg width="15" height="15" viewBox="0 0 15 15" fill="none" xmlns="http://www.w3.org/2000/svg">
<path d="M7.18652 0C11.1554 3.86559e-05 14.373 3.21762 14.373 7.18652C14.373 11.1554 11.1554 14.373 7.18652 14.373C3.21765 14.373 3.86545e-05 11.1554 0 7.18652C4.53546e-05 3.21765 3.21766 8.69112e-05 7.18652 0ZM7.18652 2C4.32223 2.00009 2.00005 4.32222 2 7.18652C2.00004 10.0508 4.32222 12.373 7.18652 12.373C10.0509 12.373 12.373 10.0509 12.373 7.18652C12.373 4.32219 10.0509 2.00004 7.18652 2ZM7.18652 6.18652C7.73881 6.18652 8.18652 6.63424 8.18652 7.18652V9.66113C8.18649 10.2134 7.73879 10.6611 7.18652 10.6611C6.63428 10.6611 6.18656 10.2134 6.18652 9.66113V7.18652C6.18652 6.63425 6.63426 6.18654 7.18652 6.18652ZM7.19336 3.71191C7.74542 3.71217 8.19335 4.15979 8.19336 4.71191C8.19336 5.26404 7.74543 5.71166 7.19336 5.71191H7.18652C6.63426 5.71189 6.18652 5.26419 6.18652 4.71191C6.18653 4.15965 6.63426 3.71194 7.18652 3.71191H7.19336Z" fill="#4A5566"/>
</svg>
