<svg width="15" height="15" viewBox="0 0 15 15" fill="none" xmlns="http://www.w3.org/2000/svg">
<path d="M4.98926 0C5.38268 0.000226784 5.70215 0.31942 5.70215 0.712891C5.70211 1.10633 5.38265 1.42555 4.98926 1.42578H2.13867C1.94969 1.42578 1.76841 1.50115 1.63477 1.63477C1.50111 1.76842 1.42578 1.94965 1.42578 2.13867V12.1162C1.42585 12.3051 1.50117 12.4865 1.63477 12.6201C1.76838 12.7535 1.94986 12.8291 2.13867 12.8291H4.98926C5.38255 12.8293 5.70194 13.1477 5.70215 13.541C5.70211 13.9345 5.38265 14.2537 4.98926 14.2539H2.13867C1.57169 14.2539 1.02693 14.0288 0.625977 13.6279C0.225195 13.227 7.25063e-05 12.6831 0 12.1162V2.13867C0 1.57162 0.225008 1.02695 0.625977 0.625977C1.02694 0.225053 1.57165 0 2.13867 0H4.98926ZM9.47363 3.05957C9.75192 2.78128 10.2031 2.78136 10.4814 3.05957L14.0449 6.62305C14.3232 6.90137 14.3232 7.35253 14.0449 7.63086L10.4814 11.1943C10.2031 11.4725 9.75192 11.4726 9.47363 11.1943C9.19546 10.916 9.19546 10.4648 9.47363 10.1865L11.8203 7.83984H4.98926C4.59565 7.83984 4.27637 7.52056 4.27637 7.12695C4.27637 6.73334 4.59565 6.41406 4.98926 6.41406H11.8203L9.47363 4.06738C9.19546 3.78909 9.19546 3.33787 9.47363 3.05957Z" fill="#EB000B"/>
</svg>
