<svg width="18" height="15" viewBox="0 0 18 15" fill="none" xmlns="http://www.w3.org/2000/svg">
<path d="M15.5459 0C16.8662 0.000235681 17.9457 1.05264 17.9951 2.36133C17.9984 2.39024 17.9988 2.41929 17.999 2.44824C17.999 2.45042 18 2.45289 18 2.45508V12.2725C17.9998 13.6241 16.8975 14.7273 15.5459 14.7275H2.45508C1.1033 14.7275 0.000156979 13.6242 0 12.2725V2.45508C0 1.10321 1.10321 0 2.45508 0H15.5459ZM9.46973 8.85156C9.18806 9.04873 8.81295 9.04867 8.53125 8.85156L1.63672 4.02441V12.2725C1.63688 12.7205 2.00704 13.0908 2.45508 13.0908H15.5459C15.9937 13.0906 16.3641 12.7203 16.3643 12.2725V4.02441L9.46973 8.85156ZM2.45508 1.63672C2.13762 1.63672 1.85898 1.82218 1.72363 2.08984L9 7.18164L16.2754 2.08984C16.1399 1.82264 15.8629 1.63689 15.5459 1.63672H2.45508Z" fill="#6D7684"/>
</svg>
