<svg width="18" height="18" viewBox="0 0 18 18" fill="none" xmlns="http://www.w3.org/2000/svg">
<path d="M16.96 9.69892C16.8202 11.2114 16.2526 12.6528 15.3235 13.8545C14.3944 15.0561 13.1423 15.9684 11.7137 16.4844C10.2851 17.0004 8.73911 17.0989 7.25657 16.7683C5.77404 16.4377 4.41631 15.6918 3.34226 14.6177C2.2682 13.5437 1.52225 12.186 1.19168 10.7034C0.861111 9.22089 0.959599 7.67488 1.47562 6.24627C1.99164 4.81767 2.90385 3.56557 4.10551 2.63649C5.30717 1.70741 6.74858 1.13977 8.26108 1C7.37556 2.19801 6.94944 3.67405 7.06023 5.15968C7.17102 6.64531 7.81135 8.04182 8.86476 9.09524C9.91818 10.1487 11.3147 10.789 12.8003 10.8998C14.286 11.0106 15.762 10.5844 16.96 9.69892Z" stroke="#4A5566" stroke-width="2" stroke-linecap="round" stroke-linejoin="round"/>
</svg>
