<svg width="56" height="56" viewBox="0 0 56 56" fill="none" xmlns="http://www.w3.org/2000/svg">
<path fill-rule="evenodd" clip-rule="evenodd" d="M0.675975 0.676165C1.57755 -0.225406 3.04001 -0.22537 3.9416 0.676165L24.9201 21.6547C25.0578 21.7647 25.1842 21.8892 25.2941 22.0287L54.7316 51.4672C55.6332 52.3688 55.6332 53.8302 54.7316 54.7318C53.83 55.633 52.3685 55.6333 51.467 54.7318L36.1887 39.4535C35.5872 39.5731 34.9398 39.4577 34.4006 39.0746C32.4475 37.6871 30.1108 36.9418 27.715 36.9418C25.3194 36.9419 22.9825 37.6871 21.0295 39.0746C19.9901 39.8127 18.5491 39.5689 17.8107 38.5297C17.0725 37.4904 17.3167 36.0495 18.3557 35.3109C21.0899 33.3684 24.3611 32.3247 27.715 32.3246C28.1861 32.3246 28.6558 32.3463 29.1223 32.3871L22.7004 25.9652C19.1466 26.7661 15.828 28.4016 13.0246 30.7455C12.0466 31.5628 10.5905 31.4331 9.77265 30.4555C8.95483 29.4773 9.08558 28.0204 10.0637 27.2025C12.7027 24.9961 15.7221 23.3135 18.9592 22.225L13.592 16.8578C10.3963 18.2822 7.43368 20.1871 4.80781 22.5082C3.85249 23.3525 2.39343 23.2623 1.54902 22.307C0.704725 21.3518 0.79409 19.8927 1.74922 19.0482C4.2878 16.8043 7.10422 14.9035 10.1252 13.391L0.675975 3.94179C-0.225434 3.04032 -0.225217 1.57777 0.675975 0.676165ZM27.7277 43.8646C29.0027 43.8646 30.0363 44.8983 30.0363 46.1732C30.0363 47.4483 29.0028 48.4818 27.7277 48.4818H27.7043C26.4294 48.4817 25.3957 47.4482 25.3957 46.1732C25.3958 44.8983 26.4294 43.8648 27.7043 43.8646H27.7277ZM36.5266 24.5209C37.0858 23.3753 38.4687 22.8995 39.6145 23.4584C41.6782 24.4656 43.6085 25.7275 45.3596 27.2133C46.3314 28.0382 46.4508 29.4951 45.6262 30.4672C44.8013 31.4393 43.3445 31.5585 42.3723 30.7338C40.9146 29.4969 39.3071 28.4473 37.5891 27.6088C36.4434 27.0495 35.9674 25.6666 36.5266 24.5209ZM24.5412 9.35781C29.7963 8.93442 35.0837 9.574 40.0861 11.2387C45.0884 12.9034 49.7049 15.5585 53.6584 19.0463C54.6142 19.8898 54.7048 21.349 53.8615 22.3051C53.0181 23.261 51.5599 23.3523 50.6037 22.5092C47.1153 19.4317 43.0419 17.0884 38.6281 15.6195C34.2143 14.1507 29.5491 13.5868 24.9123 13.9603C23.6414 14.0628 22.5284 13.115 22.426 11.8441C22.3236 10.5733 23.2704 9.46028 24.5412 9.35781Z" fill="white"/>
</svg>
