<svg width="14" height="16" viewBox="0 0 14 16" fill="none" xmlns="http://www.w3.org/2000/svg">
<path d="M7.60522 13.6494C7.79926 13.3151 8.22788 13.2015 8.56226 13.3955C8.89651 13.5896 9.01011 14.0182 8.81616 14.3525C8.63157 14.6706 8.36627 14.9346 8.04761 15.1182C7.7289 15.3017 7.36752 15.3984 6.99976 15.3984C6.63198 15.3984 6.27062 15.3017 5.9519 15.1182C5.63323 14.9346 5.36795 14.6706 5.18335 14.3525C4.9894 14.0182 5.10303 13.5896 5.43726 13.3955C5.77159 13.2016 6.20023 13.3152 6.39429 13.6494C6.45579 13.7554 6.544 13.8441 6.65015 13.9053C6.75634 13.9664 6.87722 13.998 6.99976 13.998C7.12235 13.998 7.24313 13.9665 7.34937 13.9053C7.45561 13.8441 7.54369 13.7555 7.60522 13.6494ZM7.00073 0C8.30004 0.00023874 9.54681 0.516783 10.4656 1.43555C11.3843 2.35447 11.9001 3.60098 11.9001 4.90039C11.9001 7.24716 12.4024 8.70459 12.865 9.55273C13.0971 9.97821 13.3231 10.258 13.4802 10.4238C13.5589 10.5068 13.6217 10.5618 13.6589 10.5928C13.6773 10.6081 13.6897 10.618 13.6951 10.6221C13.6944 10.6216 13.6931 10.6207 13.6921 10.6201L13.6902 10.6191C13.9457 10.7904 14.0595 11.1088 13.9705 11.4033C13.8811 11.6984 13.6088 11.9002 13.3005 11.9004H0.699951C0.391501 11.9004 0.119453 11.6985 0.0300293 11.4033C-0.0590759 11.1086 0.0546281 10.7904 0.310303 10.6191L0.30835 10.6201C0.307508 10.6207 0.306154 10.6216 0.30542 10.6221C0.310976 10.6179 0.323349 10.6079 0.341553 10.5928C0.37884 10.5617 0.441725 10.5067 0.520264 10.4238C0.677352 10.2579 0.903463 9.97813 1.1355 9.55273C1.59804 8.70457 2.10034 7.24699 2.10034 4.90039C2.10036 3.6009 2.61611 2.35449 3.53491 1.43555C4.45387 0.516721 5.70122 0 7.00073 0ZM7.00073 1.40039C6.07254 1.40039 5.18154 1.76952 4.52515 2.42578C3.8689 3.08216 3.49977 3.97222 3.49976 4.90039C3.49976 7.45349 2.9524 9.14663 2.36499 10.2236C2.31149 10.3217 2.2554 10.4134 2.2019 10.501H11.7996C11.746 10.4133 11.69 10.3218 11.6365 10.2236C11.049 9.14664 10.5007 7.45366 10.5007 4.90039C10.5007 3.9723 10.1315 3.08214 9.47534 2.42578C8.81914 1.76958 7.92871 1.40063 7.00073 1.40039Z" fill="#4A5566"/>
</svg>
