<svg width="17" height="18" viewBox="0 0 17 18" fill="none" xmlns="http://www.w3.org/2000/svg">
<path d="M16 8.30084L8.81379 15.435C7.93343 16.309 6.7394 16.8 5.49437 16.8C4.24935 16.8 3.05532 16.309 2.17495 15.435C1.29459 14.5611 0.800003 13.3757 0.800003 12.1397C0.800003 10.9036 1.29459 9.71825 2.17495 8.84425L9.36116 1.71005C9.94807 1.12739 10.7441 0.800049 11.5741 0.800049C12.4041 0.800049 13.2001 1.12739 13.7871 1.71005C14.374 2.29271 14.7037 3.08297 14.7037 3.90698C14.7037 4.73099 14.374 5.52125 13.7871 6.10391L6.59303 13.2381C6.29957 13.5294 5.90156 13.6931 5.48655 13.6931C5.07154 13.6931 4.67353 13.5294 4.38008 13.2381C4.08662 12.9468 3.92176 12.5517 3.92176 12.1397C3.92176 11.7276 4.08662 11.3325 4.38008 11.0412L11.0189 4.45815" stroke="#4A5566" stroke-width="1.6" stroke-linecap="round" stroke-linejoin="round"/>
</svg>
