<svg width="13" height="11" viewBox="0 0 13 11" fill="none" xmlns="http://www.w3.org/2000/svg">
<path d="M6.5 6.5C7.21818 6.50009 7.90721 6.78611 8.41504 7.29395C8.92277 7.80183 9.20898 8.49082 9.20898 9.20898V10.292C9.20885 10.5909 8.96592 10.8338 8.66699 10.834C8.36792 10.834 8.12513 10.591 8.125 10.292V9.20898C8.125 8.77814 7.95398 8.36429 7.64941 8.05957C7.34474 7.7549 6.93086 7.58407 6.5 7.58398H2.70898C2.27803 7.58398 1.86431 7.75485 1.55957 8.05957C1.25482 8.36432 1.08398 8.77801 1.08398 9.20898V10.292C1.08385 10.5909 0.840916 10.8338 0.541992 10.834C0.242919 10.834 0.000132155 10.591 0 10.292V9.20898C0 8.49069 0.286034 7.80186 0.793945 7.29395C1.30185 6.78606 1.99071 6.5 2.70898 6.5H6.5ZM10.833 2.70801C11.1321 2.70801 11.375 2.95088 11.375 3.25V4.33301H12.458C12.7571 4.33301 13 4.57588 13 4.875C13 5.17415 12.7572 5.41699 12.458 5.41699H11.375V6.5C11.375 6.79915 11.1322 7.04199 10.833 7.04199C10.534 7.04182 10.291 6.79905 10.291 6.5V5.41699H9.20801C8.909 5.41682 8.66602 5.17405 8.66602 4.875C8.66606 4.57599 8.90903 4.33318 9.20801 4.33301H10.291V3.25C10.2911 2.95099 10.534 2.70818 10.833 2.70801ZM4.60449 0C6.10011 0.000175861 7.3125 1.21332 7.3125 2.70898C7.31219 4.20439 6.09992 5.41682 4.60449 5.41699C3.10891 5.41699 1.89582 4.20449 1.89551 2.70898C1.89551 1.21321 3.10872 0 4.60449 0ZM4.60449 1.08398C3.70703 1.08398 2.97949 1.81152 2.97949 2.70898C2.9798 3.60619 3.70722 4.33398 4.60449 4.33398C5.50162 4.33381 6.22918 3.60608 6.22949 2.70898C6.22949 1.81163 5.50181 1.08416 4.60449 1.08398Z" fill="white"/>
</svg>
