<svg width="14" height="11" viewBox="0 0 14 11" fill="none" xmlns="http://www.w3.org/2000/svg">
<path fill-rule="evenodd" clip-rule="evenodd" d="M6.59961 6.59961C7.32886 6.59961 8.02824 6.88967 8.54395 7.40527C9.0596 7.92095 9.34957 8.62035 9.34961 9.34961V10.4492C9.34961 10.7529 9.10352 10.999 8.7998 10.999C8.49615 10.9989 8.25 10.7529 8.25 10.4492V9.34961C8.24996 8.91208 8.07597 8.49201 7.7666 8.18262C7.45719 7.8733 7.03712 7.69922 6.59961 7.69922H2.75C2.31248 7.69928 1.89239 7.87324 1.58301 8.18262C1.27364 8.49201 1.09965 8.91208 1.09961 9.34961V10.4492C1.09961 10.753 0.853558 10.999 0.549805 10.999C0.246155 10.9989 0 10.7529 0 10.4492V9.34961C3.87906e-05 8.62034 0.290004 7.92095 0.805664 7.40527C1.32133 6.88961 2.02074 6.59967 2.75 6.59961H6.59961ZM12.2607 3.46094C12.4755 3.24619 12.8233 3.24627 13.0381 3.46094C13.2529 3.67572 13.2529 4.0235 13.0381 4.23828L10.8389 6.43848C10.6241 6.653 10.2752 6.65317 10.0605 6.43848L8.96094 5.33887C8.74628 5.12417 8.74643 4.77534 8.96094 4.56055C9.17566 4.34603 9.52354 4.34605 9.73828 4.56055L10.4492 5.27148L12.2607 3.46094ZM4.6748 0C6.1934 0.000198057 7.4248 1.23136 7.4248 2.75C7.42452 4.2684 6.19323 5.4998 4.6748 5.5C3.15621 5.5 1.92509 4.26853 1.9248 2.75C1.9248 1.23123 3.15604 0 4.6748 0ZM4.6748 1.09961C3.76354 1.09961 3.02441 1.83874 3.02441 2.75C3.0247 3.66102 3.76372 4.39941 4.6748 4.39941C5.58572 4.39922 6.32394 3.6609 6.32422 2.75C6.32422 1.83886 5.5859 1.09981 4.6748 1.09961Z" fill="#4A5566"/>
</svg>
