<svg width="13" height="14" viewBox="0 0 13 14" fill="none" xmlns="http://www.w3.org/2000/svg">
<path d="M6.27344 0C7.27136 0.000108944 8.22884 0.396016 8.93457 1.10156C9.64035 1.80735 10.037 2.76555 10.0371 3.76367V5.64648H10.6641C11.7033 5.64661 12.5459 6.48904 12.5459 7.52832V11.9189C12.5458 12.9581 11.7032 13.8007 10.6641 13.8008H1.88184C0.842713 13.8006 0.000139611 12.9581 0 11.9189V7.52832C0 6.48907 0.842627 5.64665 1.88184 5.64648H2.50977V3.76367C2.50985 2.76555 2.90555 1.80735 3.61133 1.10156C4.31716 0.395871 5.27533 0 6.27344 0ZM1.88184 6.90039C1.53553 6.90056 1.25391 7.18197 1.25391 7.52832V11.9189C1.25405 12.2652 1.53561 12.5467 1.88184 12.5469H10.6641C11.0103 12.5468 11.2909 12.2652 11.291 11.9189V7.52832C11.291 7.18195 11.0104 6.90051 10.6641 6.90039H1.88184ZM6.27344 1.25391C5.60807 1.25391 4.96957 1.51885 4.49902 1.98926C4.02853 2.45976 3.76375 3.0983 3.76367 3.76367V5.64648H8.78223V3.76367C8.78215 3.09839 8.51823 2.45974 8.04785 1.98926C7.57738 1.51881 6.93876 1.25402 6.27344 1.25391Z" fill="#4A5566"/>
</svg>
