<svg width="24" height="24" viewBox="0 0 24 24" fill="none" xmlns="http://www.w3.org/2000/svg">
<path d="M0.749404 15.9644C0.73468 15.9687 0.7201 15.9733 0.705575 15.9782C0.688774 15.9839 0.671981 15.9892 0.655649 15.9956C0.632949 16.0046 0.610928 16.0151 0.588879 16.0257C0.582354 16.0288 0.575322 16.0308 0.568885 16.0341C0.547616 16.0448 0.527 16.0568 0.506461 16.069C0.495361 16.0756 0.484193 16.082 0.473396 16.089C0.461978 16.0963 0.451545 16.1051 0.440399 16.113C0.42407 16.1244 0.407748 16.1358 0.392192 16.1481C0.38318 16.1553 0.374592 16.1629 0.365799 16.1704C0.347779 16.1857 0.32943 16.2005 0.312573 16.217C0.30399 16.2253 0.296706 16.235 0.288386 16.2437C0.275309 16.2573 0.262285 16.271 0.25 16.2853C0.237917 16.2994 0.226599 16.3141 0.215203 16.329C0.204876 16.3424 0.194266 16.3556 0.184616 16.3695C0.17716 16.3803 0.170236 16.3915 0.163142 16.4026C0.151482 16.4209 0.139991 16.4392 0.129491 16.4581C0.127264 16.4621 0.124766 16.466 0.122585 16.4701C0.11801 16.4786 0.114789 16.488 0.110476 16.4966C0.102097 16.5133 0.0929755 16.5296 0.0854998 16.5467C0.0790356 16.5616 0.0739746 16.5768 0.0682546 16.5918C0.0610679 16.6106 0.054223 16.6295 0.04813 16.6488C0.043883 16.6622 0.0404031 16.6757 0.0367295 16.6892C0.0323224 16.7054 0.0281468 16.7216 0.0245212 16.738C0.0205907 16.7558 0.0165359 16.7736 0.0135767 16.7915C0.0104032 16.8106 0.00788024 16.8298 0.00578255 16.8492C0.00485674 16.8578 0.00431861 16.8664 0.00361179 16.875C-0.00377352 16.9641 -8.00986e-05 17.0551 0.0167067 17.1465C0.0202962 17.1661 0.0255391 17.1852 0.0302381 17.2046C0.0321599 17.2125 0.0325549 17.2207 0.0346703 17.2286L1.64521 23.2393C1.79353 23.7923 2.36233 24.1207 2.91541 23.9726C3.46837 23.8243 3.7968 23.2555 3.64875 22.7024L2.65872 19.0076L6.36412 20.9962C7.87409 21.8622 9.57824 22.3345 11.3189 22.369C13.0702 22.4035 14.8019 21.9936 16.3521 21.178C17.9023 20.3624 19.2208 19.1674 20.1843 17.7046C21.1478 16.2416 21.7257 14.5578 21.8627 12.8114C21.9073 12.2408 21.4806 11.7418 20.9099 11.6968C20.339 11.652 19.8392 12.0789 19.7944 12.6498C19.6847 14.0468 19.2229 15.3939 18.4522 16.5642C17.6814 17.7344 16.6263 18.6906 15.3863 19.343C14.1462 19.9954 12.7608 20.3231 11.3598 20.2955C9.9587 20.2678 8.5873 19.8848 7.3738 19.1838C7.36448 19.1785 7.35482 19.1733 7.34534 19.1682L3.83382 17.2844L7.31549 16.3515C7.86854 16.2031 8.19705 15.6344 8.04884 15.0813C7.90059 14.5282 7.33175 14.1999 6.77864 14.3479L0.768017 15.9585C0.761817 15.9601 0.755548 15.9627 0.749404 15.9644ZM11.7183 1.63933C9.96699 1.60477 8.23529 2.01472 6.68509 2.83025C5.13489 3.64584 3.81646 4.84089 2.85293 6.30373C1.88938 7.76674 1.31155 9.45043 1.17448 11.1969C1.12976 11.7677 1.55647 12.2665 2.12726 12.3115C2.69818 12.3562 3.19802 11.9294 3.24283 11.3584C3.35257 9.96151 3.81455 8.61527 4.58528 7.44503C5.35612 6.27467 6.41071 5.31776 7.65094 4.66526C8.89109 4.01291 10.2766 3.68601 11.6776 3.7137C13.0787 3.74144 14.45 4.12348 15.6634 4.82444C15.6727 4.82981 15.6824 4.835 15.6919 4.84007L19.2034 6.72393L15.7217 7.65684C15.1688 7.80518 14.8404 8.374 14.9884 8.92704C15.1367 9.48003 15.7055 9.8084 16.2586 9.66038L22.2692 8.04984C22.2767 8.04781 22.2838 8.04407 22.2913 8.04189C22.2991 8.0396 22.3069 8.0371 22.3146 8.03463C22.3727 8.01622 22.4282 7.99421 22.4805 7.96693C22.4856 7.9643 22.4905 7.96157 22.4955 7.95886C22.6114 7.89603 22.712 7.81304 22.7942 7.71506C22.7988 7.70952 22.8033 7.70389 22.8079 7.69824C22.8459 7.65096 22.8799 7.60082 22.9091 7.54778C22.9108 7.54461 22.9129 7.54141 22.9146 7.53821C22.9187 7.53066 22.9218 7.52265 22.9256 7.51505C22.936 7.49442 22.9463 7.47377 22.9553 7.45248C22.9588 7.44431 22.9616 7.4359 22.9649 7.42769C22.974 7.40442 22.983 7.38107 22.9904 7.35714C22.994 7.34581 22.9974 7.33448 23.0005 7.32309C23.0155 7.26897 23.0259 7.21347 23.0319 7.15698C23.0331 7.14529 23.0338 7.13357 23.0346 7.12188C23.0359 7.10282 23.0371 7.08373 23.0374 7.06451C23.0377 7.04774 23.0366 7.03102 23.0361 7.01431C23.0355 6.99668 23.0355 6.97899 23.034 6.96128C23.033 6.9498 23.0312 6.93843 23.0299 6.927C23.0241 6.87811 23.0156 6.8286 23.0025 6.77965L21.392 0.769022C21.2436 0.21598 20.6749 -0.112536 20.1218 0.0356751C19.5687 0.183907 19.2404 0.752749 19.3884 1.30587L20.3782 4.99978L16.6731 3.01211C15.1632 2.14614 13.4589 1.67378 11.7183 1.63933Z" fill="white"/>
</svg>
