<svg width="18" height="18" viewBox="0 0 18 18" fill="none" xmlns="http://www.w3.org/2000/svg">
<path d="M8.10059 0C12.5738 0.000263449 16.2002 3.62733 16.2002 8.10059C16.2 10.0125 15.5349 11.7679 14.4268 13.1533L17.7363 16.4629C18.0877 16.8144 18.0878 17.3849 17.7363 17.7363C17.3849 18.0876 16.8143 18.0876 16.4629 17.7363L13.1533 14.4268C11.7679 15.5348 10.0125 16.2001 8.10059 16.2002C3.62742 16.2002 0.0004117 12.5737 0 8.10059C0 3.62717 3.62717 0 8.10059 0ZM8.10059 1.80078C4.62126 1.80078 1.80078 4.62126 1.80078 8.10059C1.80119 11.5796 4.62152 14.4004 8.10059 14.4004C9.80147 14.4003 11.3431 13.7237 12.4766 12.6279C12.4984 12.6002 12.5223 12.5734 12.5479 12.5479C12.5734 12.5223 12.6002 12.4984 12.6279 12.4766C13.7238 11.3431 14.4002 9.80151 14.4004 8.10059C14.4004 4.62142 11.5797 1.80104 8.10059 1.80078Z" fill="#4A5566"/>
</svg>
