<svg width="22" height="22" viewBox="0 0 22 22" fill="none" xmlns="http://www.w3.org/2000/svg">
<path d="M21.0692 0.00238417C21.076 0.00286374 21.0829 0.00274151 21.0897 0.00336073C21.1314 0.0070908 21.1727 0.0139557 21.2137 0.022892C21.22 0.0242639 21.2261 0.0262834 21.2323 0.0277748C21.2702 0.0367985 21.3077 0.0474758 21.3446 0.0609779C21.3495 0.0627926 21.3543 0.0649441 21.3592 0.0668373C21.4344 0.0957404 21.5063 0.134356 21.5741 0.182072C21.5885 0.192237 21.6031 0.202341 21.617 0.213322C21.6481 0.237731 21.6783 0.263824 21.7069 0.292423C21.7351 0.320666 21.7609 0.350694 21.785 0.38129C21.7965 0.395824 21.8067 0.411154 21.8172 0.426212C21.8328 0.44832 21.8476 0.470573 21.8612 0.493595C21.8675 0.504305 21.8739 0.514912 21.8797 0.525822C21.8995 0.562404 21.9167 0.599847 21.9315 0.638126C21.934 0.644564 21.936 0.651174 21.9383 0.657658C21.9493 0.687906 21.9587 0.718474 21.9667 0.749454C21.9709 0.765991 21.9749 0.782526 21.9784 0.799259C21.9832 0.822924 21.987 0.846652 21.9901 0.870548C21.9937 0.897784 21.9956 0.925075 21.9969 0.952579C21.9981 0.977021 21.9985 1.00137 21.9979 1.02582C21.9975 1.04246 21.9962 1.05898 21.995 1.07563C21.9888 1.15637 21.9738 1.23628 21.9481 1.31391C21.9464 1.31898 21.946 1.32447 21.9442 1.32953L14.9442 21.3295C14.8088 21.7165 14.4504 21.9817 14.0409 21.9985C13.6312 22.0151 13.2523 21.7804 13.0858 21.4057L9.24205 12.7573L0.59361 8.91352C0.218995 8.74697 -0.0158754 8.36808 0.000836762 7.95844C0.017668 7.54892 0.282923 7.19056 0.669782 7.05512L20.6698 0.0551185C20.6755 0.0531213 20.6816 0.0521242 20.6874 0.0502357C20.7215 0.0390252 20.7559 0.0293541 20.7909 0.0219154C20.8013 0.0196936 20.8117 0.0179388 20.8221 0.016056C20.8558 0.00999304 20.8896 0.00497387 20.9237 0.00238417C20.9393 0.00119695 20.9549 0.000880371 20.9706 0.000431042C21.0035 -0.000531498 21.0364 0.000117365 21.0692 0.00238417ZM11.1922 12.2202L13.8885 18.2866L18.6063 4.8061L11.1922 12.2202ZM3.71177 8.10981L9.77818 10.8061L17.1942 3.39008L3.71177 8.10981Z" fill="white"/>
</svg>
