<svg width="16" height="16" viewBox="0 0 16 16" fill="none" xmlns="http://www.w3.org/2000/svg">
<path d="M8 13.333C8.36819 13.333 8.66699 13.6318 8.66699 14V15.333C8.66699 15.7012 8.36819 16 8 16C7.63181 16 7.33301 15.7012 7.33301 15.333V14C7.33301 13.6318 7.63181 13.333 8 13.333ZM3.28906 11.7686C3.54937 11.5086 3.97118 11.5085 4.23145 11.7686C4.49155 12.0289 4.49171 12.4516 4.23145 12.7119L3.28516 13.6582C3.02488 13.9184 2.60214 13.9183 2.3418 13.6582C2.08176 13.398 2.08189 12.9761 2.3418 12.7158L3.28906 11.7686ZM11.7686 11.7686C12.0289 11.5082 12.4516 11.5082 12.7119 11.7686L13.6582 12.7158C13.9182 12.9762 13.9184 13.398 13.6582 13.6582C13.398 13.9184 12.9762 13.9182 12.7158 13.6582L11.7686 12.7119C11.5082 12.4516 11.5083 12.0289 11.7686 11.7686ZM8 4C10.2089 4.00018 11.9998 5.79112 12 8C11.9998 10.2089 10.2089 11.9998 8 12C5.79112 11.9998 4.00018 10.2089 4 8C4.00018 5.79112 5.79112 4.00018 8 4ZM8 5.33398C6.5275 5.33416 5.33416 6.5275 5.33398 8C5.33416 9.4725 6.5275 10.6668 8 10.667C9.4725 10.6668 10.6668 9.4725 10.667 8C10.6668 6.5275 9.4725 5.33416 8 5.33398ZM2 7.33301C2.36804 7.33318 2.66699 7.63192 2.66699 8C2.66699 8.36808 2.36804 8.66682 2 8.66699H0.666992C0.298802 8.66699 0 8.36819 0 8C0 7.63181 0.298802 7.33301 0.666992 7.33301H2ZM15.333 7.33301C15.7012 7.33301 16 7.63181 16 8C16 8.36819 15.7012 8.66699 15.333 8.66699H14C13.6318 8.66699 13.333 8.36819 13.333 8C13.333 7.63181 13.6318 7.33301 14 7.33301H15.333ZM2.3418 2.3418C2.60215 2.08153 3.02483 2.08147 3.28516 2.3418L4.23145 3.28906C4.49158 3.5494 4.49165 3.97115 4.23145 4.23145C3.97116 4.49173 3.54943 4.4916 3.28906 4.23145L2.3418 3.28516C2.08145 3.02481 2.08145 2.60215 2.3418 2.3418ZM12.7158 2.3418C12.9761 2.08189 13.398 2.08176 13.6582 2.3418C13.9184 2.60213 13.9184 3.02483 13.6582 3.28516L12.7119 4.23145C12.4516 4.49177 12.0289 4.49171 11.7686 4.23145C11.5085 3.97118 11.5086 3.54937 11.7686 3.28906L12.7158 2.3418ZM8 0C8.36819 0 8.66699 0.298802 8.66699 0.666992V2C8.66682 2.36804 8.36808 2.66699 8 2.66699C7.63192 2.66699 7.33318 2.36804 7.33301 2V0.666992C7.33301 0.298802 7.63181 0 8 0Z" fill="#4A5566"/>
</svg>
