<svg width="25" height="25" viewBox="0 0 25 25" fill="none" xmlns="http://www.w3.org/2000/svg">
<path d="M23.0996 14.3994C23.9278 14.3995 24.5994 15.0712 24.5996 15.8994V20.6992C24.5996 21.7333 24.1891 22.7257 23.458 23.457C22.7267 24.1883 21.7344 24.5995 20.7002 24.5996H3.90039C2.86609 24.5996 1.87396 24.1884 1.14258 23.457C0.411232 22.7256 0 21.7335 0 20.6992V15.8994C0.00021131 15.0712 0.671703 14.3994 1.5 14.3994C2.32818 14.3995 2.99979 15.0712 3 15.8994V20.6992C3 20.9379 3.09493 21.1672 3.26367 21.3359C3.43245 21.5047 3.66174 21.5996 3.90039 21.5996H20.7002C20.9386 21.5995 21.1673 21.5044 21.3359 21.3359C21.5045 21.1672 21.5996 20.9378 21.5996 20.6992V15.8994C21.5998 15.0713 22.2715 14.3996 23.0996 14.3994ZM12.332 0.000976562C12.3614 0.00160825 12.3906 0.00351453 12.4199 0.00585938C12.4372 0.00723215 12.4545 0.00781007 12.4717 0.00976562C12.5014 0.0131841 12.531 0.0182392 12.5605 0.0234375C12.5828 0.0273467 12.605 0.0312511 12.627 0.0361328C12.6463 0.0404381 12.6654 0.0457034 12.6846 0.0507812C12.7089 0.0572157 12.733 0.0636823 12.7568 0.0712891C12.7925 0.0826671 12.8274 0.0962427 12.8623 0.110352C12.87 0.113488 12.8781 0.11588 12.8857 0.119141C12.9165 0.132185 12.9466 0.146919 12.9766 0.162109C13.0724 0.2107 13.1625 0.268733 13.2451 0.335938C13.2847 0.368197 13.3234 0.402543 13.3604 0.439453L19.3604 6.43945C19.946 7.02525 19.9461 7.97479 19.3604 8.56055C18.7746 9.1462 17.825 9.1462 17.2393 8.56055L13.7998 5.12109V15.9004C13.7995 16.7285 13.128 17.4004 12.2998 17.4004C11.4716 17.4004 10.8001 16.7285 10.7998 15.9004V5.12109L7.36035 8.56055C6.77459 9.1462 5.82502 9.1462 5.23926 8.56055C4.6535 7.97479 4.65357 7.02525 5.23926 6.43945L11.2393 0.439453L11.3535 0.335938C11.3772 0.316599 11.4022 0.298918 11.4268 0.28125C11.4394 0.27219 11.451 0.261603 11.4639 0.25293C11.5828 0.172982 11.7112 0.112481 11.8438 0.0703125C11.8624 0.0643767 11.8815 0.0599078 11.9004 0.0546875C11.9283 0.0470036 11.9561 0.039244 11.9844 0.0332031C12.0015 0.0295371 12.0188 0.0265132 12.0361 0.0234375C12.0582 0.0195138 12.0803 0.0156236 12.1025 0.0126953L12.1465 0.0078125C12.1562 0.00682547 12.166 0.00665988 12.1758 0.00585938C12.2086 0.0031536 12.2415 0.00152603 12.2744 0.000976562C12.2829 0.000836197 12.2913 0 12.2998 0C12.3106 0 12.3213 0.000750476 12.332 0.000976562Z" fill="#4A5566"/>
</svg>
