<svg width="13" height="15" viewBox="0 0 13 15" fill="none" xmlns="http://www.w3.org/2000/svg">
<path d="M9.27539 8.62207C10.2107 8.62217 11.1081 8.99389 11.7695 9.65527C12.4309 10.3167 12.8027 11.214 12.8027 12.1494V13.5869C12.8025 13.9473 12.5098 14.2391 12.1494 14.2393C11.7888 14.2392 11.4964 13.9474 11.4961 13.5869V12.1494C11.4961 11.5605 11.2621 10.9955 10.8457 10.5791C10.4293 10.1627 9.86426 9.92881 9.27539 9.92871H3.52734C2.93846 9.92871 2.3735 10.1628 1.95703 10.5791C1.54057 10.9956 1.30667 11.5605 1.30664 12.1494V13.5869C1.30638 13.9473 1.01374 14.2391 0.65332 14.2393C0.292734 14.2393 0.000258867 13.9474 0 13.5869V12.1494C3.3665e-05 11.214 0.371752 10.3167 1.0332 9.65527C1.69466 8.99395 2.59198 8.62207 3.52734 8.62207H9.27539ZM6.40137 0C8.34925 0.000127174 9.92865 1.57945 9.92871 3.52734C9.92871 5.47529 8.34929 7.05456 6.40137 7.05469C4.45334 7.05468 2.87402 5.47537 2.87402 3.52734C2.87409 1.57937 4.45338 3.09225e-06 6.40137 0ZM6.40137 1.30664C5.17487 1.30664 4.18073 2.30086 4.18066 3.52734C4.18066 4.75388 5.17483 5.74804 6.40137 5.74805C7.6278 5.74792 8.62207 4.7538 8.62207 3.52734C8.62201 2.30094 7.62776 1.30677 6.40137 1.30664Z" fill="#4A5566"/>
</svg>
