<svg width="18" height="18" viewBox="0 0 18 18" fill="none" xmlns="http://www.w3.org/2000/svg">
<path d="M16.8307 8.41526C16.8337 9.58443 16.5605 10.7378 16.0334 11.7814C15.4084 13.0319 14.4476 14.0838 13.2585 14.8191C12.0695 15.5544 10.6992 15.9442 9.30116 15.9447C8.13199 15.9478 6.97864 15.6746 5.93504 15.1475L0.885849 16.8306L2.56891 11.7814C2.04179 10.7378 1.76862 9.58443 1.77167 8.41526C1.77221 7.01722 2.16198 5.64693 2.8973 4.45789C3.63263 3.26885 4.68448 2.30801 5.93504 1.68301C6.97864 1.15588 8.13199 0.882719 9.30116 0.885767H9.74407C11.5904 0.98763 13.3343 1.76695 14.6419 3.07451C15.9495 4.38207 16.7288 6.12598 16.8307 7.97235V8.41526Z" stroke="url(#paint0_linear_90_265)" stroke-width="1.77164" stroke-linecap="round" stroke-linejoin="round"/>
<defs>
<linearGradient id="paint0_linear_90_265" x1="8.85826" y1="0.885742" x2="8.85826" y2="16.8306" gradientUnits="userSpaceOnUse">
<stop stop-color="#526DFF"/>
<stop offset="1" stop-color="#8B32FB"/>
</linearGradient>
</defs>
</svg>
