<svg width="16" height="18" viewBox="0 0 16 18" fill="none" xmlns="http://www.w3.org/2000/svg">
<path d="M7.48242 0.167874C7.77026 -0.0560002 8.17403 -0.0559157 8.46191 0.167874L15.6367 5.74795C15.8309 5.89899 15.9443 6.13181 15.9443 6.37783V15.1474C15.9442 15.7816 15.6926 16.3903 15.2441 16.8388C14.7956 17.2871 14.1869 17.539 13.5527 17.539H2.3916C1.75752 17.5389 1.14862 17.2871 0.700195 16.8388C0.251821 16.3903 9.93342e-05 15.7815 0 15.1474V6.37783C0 6.13194 0.113599 5.899 0.307617 5.74795L7.48242 0.167874ZM1.59375 6.76748V15.1474C1.59385 15.3585 1.67795 15.5615 1.82715 15.7108C1.97657 15.8603 2.18029 15.9441 2.3916 15.9442H4.78418V8.76944C4.78418 8.32913 5.14075 7.97256 5.58105 7.97256H10.3643C10.8044 7.97275 11.1621 8.32925 11.1621 8.76944V15.9442H13.5527C13.764 15.9442 13.9667 15.8601 14.1162 15.7108C14.2656 15.5614 14.3495 15.3587 14.3496 15.1474V6.76651L7.97168 1.80655L1.59375 6.76748ZM6.37793 15.9442H9.56738V9.56631H6.37793V15.9442Z" fill="url(#paint0_linear_90_262)"/>
<defs>
<linearGradient id="paint0_linear_90_262" x1="7.97217" y1="0" x2="7.97217" y2="17.539" gradientUnits="userSpaceOnUse">
<stop stop-color="#526DFF"/>
<stop offset="1" stop-color="#8B32FB"/>
</linearGradient>
</defs>
</svg>
