<svg width="15" height="18" viewBox="0 0 15 18" fill="none" xmlns="http://www.w3.org/2000/svg">
<path d="M8.84766 0.00390625C8.85077 0.00421412 8.85431 0.00453863 8.85742 0.00488281C8.89718 0.00923162 8.93586 0.0173716 8.97363 0.0273438C8.97813 0.0285343 8.98283 0.029005 8.9873 0.0302734C9.02399 0.0406552 9.05942 0.0540385 9.09375 0.0693359C9.12507 0.0832617 9.15424 0.101247 9.18359 0.119141C9.19558 0.126472 9.20817 0.132689 9.21973 0.140625C9.25983 0.168085 9.29813 0.198563 9.33301 0.233398L14.1172 5.0166C14.1505 5.04995 14.1795 5.08686 14.2061 5.125C14.2093 5.12959 14.2127 5.13401 14.2158 5.13867C14.2398 5.17473 14.2605 5.21266 14.2783 5.25195C14.3239 5.35216 14.3505 5.46286 14.3506 5.58008C14.3506 5.58684 14.3498 5.59387 14.3496 5.60059V15.1475C14.3495 15.7817 14.0979 16.3904 13.6494 16.8389C13.2009 17.2872 12.5922 17.5391 11.958 17.5391H2.3916C1.75753 17.539 1.14861 17.2872 0.700195 16.8389C0.251938 16.3904 6.35042e-05 15.7815 0 15.1475V2.3916C8.33499e-05 1.75741 0.251758 1.14865 0.700195 0.700195C1.14864 0.251752 1.75742 0.000103508 2.3916 0H8.76953L8.84766 0.00390625ZM2.3916 1.59375C2.1803 1.59385 1.97657 1.67773 1.82715 1.82715C1.67773 1.97658 1.59383 2.18029 1.59375 2.3916V15.1475C1.59381 15.3585 1.67807 15.5615 1.82715 15.7109C1.97657 15.8604 2.1803 15.9442 2.3916 15.9443H11.958C12.1694 15.9443 12.373 15.8604 12.5225 15.7109C12.6718 15.5615 12.7558 15.3587 12.7559 15.1475V6.37793H8.76953C8.32929 6.37786 7.97266 6.02034 7.97266 5.58008V1.59375H2.3916ZM10.3643 11.959C10.8045 11.9591 11.1611 12.3157 11.1611 12.7559C11.1611 13.1961 10.8045 13.5527 10.3643 13.5527H3.98633C3.54602 13.5527 3.18945 13.1962 3.18945 12.7559C3.18952 12.3156 3.54607 11.959 3.98633 11.959H10.3643ZM10.3643 8.77051C10.8045 8.77058 11.1611 9.12712 11.1611 9.56738C11.1609 10.0074 10.8044 10.3642 10.3643 10.3643H3.98633C3.54617 10.3643 3.18969 10.0075 3.18945 9.56738C3.18945 9.12708 3.54602 8.77051 3.98633 8.77051H10.3643ZM5.58105 5.58105C6.02119 5.58125 6.37793 5.93775 6.37793 6.37793C6.37792 6.8181 6.02118 7.17461 5.58105 7.1748H3.98633C3.54603 7.1748 3.18946 6.81822 3.18945 6.37793C3.18945 5.93763 3.54602 5.58105 3.98633 5.58105H5.58105ZM9.56641 4.7832H11.6279L9.56641 2.72168V4.7832Z" fill="url(#paint0_linear_90_283)"/>
<defs>
<linearGradient id="paint0_linear_90_283" x1="7.17529" y1="0" x2="7.17529" y2="17.5391" gradientUnits="userSpaceOnUse">
<stop stop-color="#526DFF"/>
<stop offset="1" stop-color="#8B32FB"/>
</linearGradient>
</defs>
</svg>
