<svg width="19" height="18" viewBox="0 0 19 18" fill="none" xmlns="http://www.w3.org/2000/svg">
<path d="M9.96484 10.2607C11.0222 10.2608 12.0098 10.7461 12.7188 11.5635C13.4245 12.3775 13.8066 13.4613 13.8066 14.5713V16.3369C13.8062 16.7673 13.4568 17.117 13.0264 17.1172C12.5958 17.1172 12.2465 16.7674 12.2461 16.3369V14.5713C12.2461 13.809 11.9821 13.0959 11.54 12.5859C11.1009 12.0796 10.531 11.8214 9.96484 11.8213H3.8418C3.27562 11.8213 2.70583 12.0796 2.2666 12.5859C1.82443 13.0959 1.56057 13.809 1.56055 14.5713V16.3369C1.5601 16.7673 1.21078 17.1171 0.780273 17.1172C0.349695 17.1172 0.000445097 16.7674 0 16.3369V14.5713C2.21153e-05 13.4613 0.382028 12.3775 1.08789 11.5635C1.7969 10.7461 2.78433 10.2607 3.8418 10.2607H9.96484ZM15.0117 10.1064C16.056 10.1064 17.0405 10.5636 17.7539 11.3486C18.4651 12.1311 18.8535 13.1783 18.8535 14.2559V15.9395C18.8535 16.3702 18.504 16.7197 18.0732 16.7197C17.6425 16.7196 17.293 16.3702 17.293 15.9395V14.2559C17.293 13.5467 17.0365 12.8794 16.5996 12.3984C16.1647 11.9199 15.5914 11.667 15.0117 11.667C14.581 11.6669 14.2315 11.3175 14.2314 10.8867C14.2314 10.4559 14.5809 10.1065 15.0117 10.1064ZM6.75586 0C9.10083 0 11.0018 1.90116 11.002 4.24609C11.002 6.59117 9.10094 8.49219 6.75586 8.49219C4.41088 8.49207 2.50977 6.5911 2.50977 4.24609C2.50994 1.90123 4.41099 0.000114791 6.75586 0ZM12.1895 0C14.4996 3.9548e-06 16.4354 1.79651 16.4355 4.08789C16.4354 6.3792 14.4995 8.1748 12.1895 8.1748C11.7586 8.1748 11.4092 7.82538 11.4092 7.39453C11.4094 6.99091 11.7163 6.65827 12.1094 6.61816L12.4697 6.60059C13.8489 6.46763 14.8748 5.36429 14.875 4.08789C14.8749 2.81142 13.849 1.70722 12.4697 1.57422L12.1094 1.55664C11.7161 1.51655 11.4092 1.1841 11.4092 0.780273C11.4093 0.349507 11.7587 0 12.1895 0ZM6.75586 1.56055C5.27269 1.56066 4.07049 2.76294 4.07031 4.24609C4.07031 5.7294 5.27258 6.9325 6.75586 6.93262C8.23923 6.93262 9.44238 5.72947 9.44238 4.24609C9.44221 2.76287 8.23912 1.56055 6.75586 1.56055Z" fill="#4A5566"/>
</svg>
