<svg width="14" height="16" viewBox="0 0 14 16" fill="none" xmlns="http://www.w3.org/2000/svg">
<path d="M9.89355 9.13281C10.9026 9.13283 11.8704 9.53372 12.584 10.2471C13.2975 10.9606 13.6991 11.9285 13.6992 12.9375V14.46C13.6992 14.8803 13.3578 15.2207 12.9375 15.2207C12.5174 15.2204 12.1768 14.8801 12.1768 14.46V12.9375C12.1766 12.3322 11.9359 11.7513 11.5078 11.3232C11.0797 10.8953 10.4989 10.6543 9.89355 10.6543H3.80469C3.19938 10.6545 2.61846 10.8952 2.19043 11.3232C1.76241 11.7513 1.52164 12.3322 1.52148 12.9375V14.46C1.52146 14.8803 1.18105 15.2207 0.760742 15.2207C0.340592 15.2205 2.24223e-05 14.8801 0 14.46V12.9375C0.000151761 11.9285 0.400781 10.9606 1.11426 10.2471C1.82774 9.53359 2.79569 9.13298 3.80469 9.13281H9.89355ZM6.84961 0C8.95085 0.000187524 10.6549 1.70349 10.6553 3.80469C10.6553 5.90618 8.95106 7.61016 6.84961 7.61035C4.74813 7.61019 3.04492 5.9062 3.04492 3.80469C3.04527 1.70347 4.74835 0.000160923 6.84961 0ZM6.84961 1.52148C5.58899 1.52165 4.56675 2.54411 4.56641 3.80469C4.56641 5.06556 5.58878 6.08773 6.84961 6.08789C8.11042 6.0877 9.13281 5.06554 9.13281 3.80469C9.13247 2.54413 8.1102 1.52167 6.84961 1.52148Z" fill="#4A5566"/>
</svg>
