<svg width="16" height="18" viewBox="0 0 16 18" fill="none" xmlns="http://www.w3.org/2000/svg">
<path d="M11.3203 10.5234C12.462 10.5234 13.5569 10.9769 14.3643 11.7842C15.1716 12.5915 15.626 13.6864 15.626 14.8281V16.582C15.6259 17.0223 15.2684 17.3789 14.8281 17.3789C14.388 17.3787 14.0313 17.0222 14.0312 16.582V14.8281C14.0312 14.1092 13.7456 13.4195 13.2373 12.9111C12.729 12.4029 12.0391 12.1172 11.3203 12.1172H4.30469C3.58586 12.1172 2.89598 12.4028 2.3877 12.9111C1.87944 13.4195 1.59376 14.1093 1.59375 14.8281V16.582C1.59372 17.0223 1.23716 17.3789 0.796875 17.3789C0.356665 17.3788 2.98515e-05 17.0223 0 16.582V14.8281C1.31968e-05 13.6864 0.453459 12.5915 1.26074 11.7842C2.06805 10.9769 3.16298 10.5235 4.30469 10.5234H11.3203ZM7.8125 0C10.1901 0 12.1172 1.92707 12.1172 4.30469C12.1171 6.68222 10.1901 8.60938 7.8125 8.60938C5.43505 8.60924 3.50794 6.68214 3.50781 4.30469C3.50784 1.92715 5.43499 0.00013154 7.8125 0ZM7.8125 1.59375C6.31559 1.59388 5.10159 2.80776 5.10156 4.30469C5.10169 5.80153 6.31566 7.01549 7.8125 7.01562C9.30945 7.01562 10.5233 5.80161 10.5234 4.30469C10.5234 2.80768 9.30952 1.59375 7.8125 1.59375Z" fill="url(#paint0_linear_90_279)"/>
<defs>
<linearGradient id="paint0_linear_90_279" x1="7.81299" y1="0" x2="7.81299" y2="17.3789" gradientUnits="userSpaceOnUse">
<stop stop-color="#526DFF"/>
<stop offset="1" stop-color="#8B32FB"/>
</linearGradient>
</defs>
</svg>
